<mxfile host="65bd71144e">
    <diagram id="fXAL7jxrKui0sIYvCSV5" name="Detailed">
        <mxGraphModel dx="1079" dy="790" grid="1" gridSize="10" guides="1" tooltips="1" connect="1" arrows="1" fold="1" page="1" pageScale="1" pageWidth="850" pageHeight="1100" math="0" shadow="0">
            <root>
                <mxCell id="0"/>
                <mxCell id="1" parent="0"/>
                <mxCell id="2" value="" style="group" vertex="1" connectable="0" parent="1">
                    <mxGeometry x="310" y="220" width="80" height="100" as="geometry"/>
                </mxCell>
                <mxCell id="3" value="" style="verticalLabelPosition=bottom;shadow=0;dashed=0;align=center;html=1;verticalAlign=top;shape=mxgraph.electrical.transistors.nigbt;" vertex="1" parent="2">
                    <mxGeometry width="50" height="100" as="geometry"/>
                </mxCell>
                <mxCell id="4" style="edgeStyle=orthogonalEdgeStyle;rounded=0;html=1;exitX=1;exitY=0.5;exitDx=0;exitDy=0;exitPerimeter=0;endArrow=none;endFill=0;" edge="1" parent="2" source="6">
                    <mxGeometry relative="1" as="geometry">
                        <mxPoint x="50" y="20" as="targetPoint"/>
                    </mxGeometry>
                </mxCell>
                <mxCell id="5" style="edgeStyle=orthogonalEdgeStyle;rounded=0;html=1;exitX=0;exitY=0.5;exitDx=0;exitDy=0;exitPerimeter=0;endArrow=none;endFill=0;entryX=1.003;entryY=0.915;entryDx=0;entryDy=0;entryPerimeter=0;" edge="1" parent="2" source="6" target="3">
                    <mxGeometry relative="1" as="geometry">
                        <mxPoint x="70" y="110" as="targetPoint"/>
                    </mxGeometry>
                </mxCell>
                <mxCell id="6" value="" style="pointerEvents=1;fillColor=strokeColor;verticalLabelPosition=bottom;shadow=0;dashed=0;align=center;html=1;verticalAlign=top;shape=mxgraph.electrical.diodes.diode;rotation=-90;" vertex="1" parent="2">
                    <mxGeometry x="50" y="40" width="40" height="20" as="geometry"/>
                </mxCell>
                <mxCell id="7" value="" style="group" vertex="1" connectable="0" parent="1">
                    <mxGeometry x="310" y="360" width="80" height="100" as="geometry"/>
                </mxCell>
                <mxCell id="8" value="" style="verticalLabelPosition=bottom;shadow=0;dashed=0;align=center;html=1;verticalAlign=top;shape=mxgraph.electrical.transistors.nigbt;" vertex="1" parent="7">
                    <mxGeometry width="50" height="100" as="geometry"/>
                </mxCell>
                <mxCell id="9" style="edgeStyle=orthogonalEdgeStyle;rounded=0;html=1;exitX=1;exitY=0.5;exitDx=0;exitDy=0;exitPerimeter=0;endArrow=none;endFill=0;" edge="1" parent="7" source="11">
                    <mxGeometry relative="1" as="geometry">
                        <mxPoint x="50" y="20" as="targetPoint"/>
                    </mxGeometry>
                </mxCell>
                <mxCell id="10" style="edgeStyle=orthogonalEdgeStyle;rounded=0;html=1;exitX=0;exitY=0.5;exitDx=0;exitDy=0;exitPerimeter=0;endArrow=none;endFill=0;" edge="1" parent="7" source="11">
                    <mxGeometry relative="1" as="geometry">
                        <mxPoint x="50" y="80" as="targetPoint"/>
                    </mxGeometry>
                </mxCell>
                <mxCell id="11" value="" style="pointerEvents=1;fillColor=strokeColor;verticalLabelPosition=bottom;shadow=0;dashed=0;align=center;html=1;verticalAlign=top;shape=mxgraph.electrical.diodes.diode;rotation=-90;" vertex="1" parent="7">
                    <mxGeometry x="50" y="40" width="40" height="20" as="geometry"/>
                </mxCell>
                <mxCell id="12" value="" style="group" vertex="1" connectable="0" parent="1">
                    <mxGeometry x="490" y="220" width="80" height="100" as="geometry"/>
                </mxCell>
                <mxCell id="13" value="" style="verticalLabelPosition=bottom;shadow=0;dashed=0;align=center;html=1;verticalAlign=top;shape=mxgraph.electrical.transistors.nigbt;" vertex="1" parent="12">
                    <mxGeometry width="50" height="100" as="geometry"/>
                </mxCell>
                <mxCell id="14" style="edgeStyle=orthogonalEdgeStyle;rounded=0;html=1;exitX=1;exitY=0.5;exitDx=0;exitDy=0;exitPerimeter=0;endArrow=none;endFill=0;" edge="1" parent="12" source="16">
                    <mxGeometry relative="1" as="geometry">
                        <mxPoint x="50" y="20" as="targetPoint"/>
                    </mxGeometry>
                </mxCell>
                <mxCell id="15" style="edgeStyle=orthogonalEdgeStyle;rounded=0;html=1;exitX=0;exitY=0.5;exitDx=0;exitDy=0;exitPerimeter=0;endArrow=none;endFill=0;" edge="1" parent="12" source="16">
                    <mxGeometry relative="1" as="geometry">
                        <mxPoint x="50" y="90" as="targetPoint"/>
                    </mxGeometry>
                </mxCell>
                <mxCell id="16" value="" style="pointerEvents=1;fillColor=strokeColor;verticalLabelPosition=bottom;shadow=0;dashed=0;align=center;html=1;verticalAlign=top;shape=mxgraph.electrical.diodes.diode;rotation=-90;" vertex="1" parent="12">
                    <mxGeometry x="50" y="40" width="40" height="20" as="geometry"/>
                </mxCell>
                <mxCell id="17" value="" style="group" vertex="1" connectable="0" parent="1">
                    <mxGeometry x="490" y="360" width="80" height="100" as="geometry"/>
                </mxCell>
                <mxCell id="18" value="" style="verticalLabelPosition=bottom;shadow=0;dashed=0;align=center;html=1;verticalAlign=top;shape=mxgraph.electrical.transistors.nigbt;" vertex="1" parent="17">
                    <mxGeometry width="50" height="100" as="geometry"/>
                </mxCell>
                <mxCell id="19" style="edgeStyle=orthogonalEdgeStyle;rounded=0;html=1;exitX=1;exitY=0.5;exitDx=0;exitDy=0;exitPerimeter=0;endArrow=none;endFill=0;" edge="1" parent="17" source="21">
                    <mxGeometry relative="1" as="geometry">
                        <mxPoint x="50" y="20" as="targetPoint"/>
                    </mxGeometry>
                </mxCell>
                <mxCell id="20" style="edgeStyle=orthogonalEdgeStyle;rounded=0;html=1;exitX=0;exitY=0.5;exitDx=0;exitDy=0;exitPerimeter=0;endArrow=none;endFill=0;" edge="1" parent="17" source="21">
                    <mxGeometry relative="1" as="geometry">
                        <mxPoint x="50" y="82" as="targetPoint"/>
                    </mxGeometry>
                </mxCell>
                <mxCell id="21" value="" style="pointerEvents=1;fillColor=strokeColor;verticalLabelPosition=bottom;shadow=0;dashed=0;align=center;html=1;verticalAlign=top;shape=mxgraph.electrical.diodes.diode;rotation=-90;" vertex="1" parent="17">
                    <mxGeometry x="50" y="40" width="40" height="20" as="geometry"/>
                </mxCell>
                <mxCell id="22" value="" style="group" vertex="1" connectable="0" parent="1">
                    <mxGeometry x="400" y="220" width="80" height="100" as="geometry"/>
                </mxCell>
                <mxCell id="23" value="" style="verticalLabelPosition=bottom;shadow=0;dashed=0;align=center;html=1;verticalAlign=top;shape=mxgraph.electrical.transistors.nigbt;" vertex="1" parent="22">
                    <mxGeometry width="50" height="100" as="geometry"/>
                </mxCell>
                <mxCell id="24" style="edgeStyle=orthogonalEdgeStyle;rounded=0;html=1;exitX=1;exitY=0.5;exitDx=0;exitDy=0;exitPerimeter=0;endArrow=none;endFill=0;" edge="1" parent="22" source="26">
                    <mxGeometry relative="1" as="geometry">
                        <mxPoint x="50" y="20" as="targetPoint"/>
                    </mxGeometry>
                </mxCell>
                <mxCell id="25" style="edgeStyle=orthogonalEdgeStyle;rounded=0;html=1;exitX=0;exitY=0.5;exitDx=0;exitDy=0;exitPerimeter=0;endArrow=none;endFill=0;entryX=0.996;entryY=0.888;entryDx=0;entryDy=0;entryPerimeter=0;" edge="1" parent="22" source="26" target="23">
                    <mxGeometry relative="1" as="geometry">
                        <mxPoint x="70" y="90" as="targetPoint"/>
                    </mxGeometry>
                </mxCell>
                <mxCell id="26" value="" style="pointerEvents=1;fillColor=strokeColor;verticalLabelPosition=bottom;shadow=0;dashed=0;align=center;html=1;verticalAlign=top;shape=mxgraph.electrical.diodes.diode;rotation=-90;" vertex="1" parent="22">
                    <mxGeometry x="50" y="40" width="40" height="20" as="geometry"/>
                </mxCell>
                <mxCell id="27" value="" style="group" vertex="1" connectable="0" parent="1">
                    <mxGeometry x="400" y="360" width="80" height="100" as="geometry"/>
                </mxCell>
                <mxCell id="28" value="" style="verticalLabelPosition=bottom;shadow=0;dashed=0;align=center;html=1;verticalAlign=top;shape=mxgraph.electrical.transistors.nigbt;" vertex="1" parent="27">
                    <mxGeometry width="50" height="100" as="geometry"/>
                </mxCell>
                <mxCell id="29" style="edgeStyle=orthogonalEdgeStyle;rounded=0;html=1;exitX=1;exitY=0.5;exitDx=0;exitDy=0;exitPerimeter=0;endArrow=none;endFill=0;" edge="1" parent="27" source="31">
                    <mxGeometry relative="1" as="geometry">
                        <mxPoint x="50" y="20" as="targetPoint"/>
                    </mxGeometry>
                </mxCell>
                <mxCell id="30" style="edgeStyle=orthogonalEdgeStyle;rounded=0;html=1;exitX=0;exitY=0.5;exitDx=0;exitDy=0;exitPerimeter=0;endArrow=none;endFill=0;" edge="1" parent="27" source="31">
                    <mxGeometry relative="1" as="geometry">
                        <mxPoint x="50" y="81" as="targetPoint"/>
                    </mxGeometry>
                </mxCell>
                <mxCell id="31" value="" style="pointerEvents=1;fillColor=strokeColor;verticalLabelPosition=bottom;shadow=0;dashed=0;align=center;html=1;verticalAlign=top;shape=mxgraph.electrical.diodes.diode;rotation=-90;" vertex="1" parent="27">
                    <mxGeometry x="50" y="40" width="40" height="20" as="geometry"/>
                </mxCell>
                <mxCell id="32" style="edgeStyle=orthogonalEdgeStyle;rounded=0;html=1;exitX=1;exitY=1;exitDx=0;exitDy=0;exitPerimeter=0;entryX=1;entryY=0;entryDx=0;entryDy=0;entryPerimeter=0;endArrow=none;endFill=0;" edge="1" parent="1" source="3" target="8">
                    <mxGeometry relative="1" as="geometry"/>
                </mxCell>
                <mxCell id="33" style="edgeStyle=orthogonalEdgeStyle;rounded=0;html=1;exitX=1;exitY=1;exitDx=0;exitDy=0;exitPerimeter=0;entryX=1;entryY=0;entryDx=0;entryDy=0;entryPerimeter=0;endArrow=none;endFill=0;" edge="1" parent="1" source="23" target="28">
                    <mxGeometry relative="1" as="geometry"/>
                </mxCell>
                <mxCell id="34" style="edgeStyle=orthogonalEdgeStyle;rounded=0;html=1;exitX=1;exitY=1;exitDx=0;exitDy=0;exitPerimeter=0;endArrow=none;endFill=0;entryX=1;entryY=0;entryDx=0;entryDy=0;entryPerimeter=0;" edge="1" parent="1" source="13" target="18">
                    <mxGeometry relative="1" as="geometry">
                        <mxPoint x="540.1379310344828" y="360" as="targetPoint"/>
                    </mxGeometry>
                </mxCell>
                <mxCell id="35" value="" style="endArrow=none;html=1;rounded=0;" edge="1" parent="1">
                    <mxGeometry width="50" height="50" relative="1" as="geometry">
                        <mxPoint x="220" y="220" as="sourcePoint"/>
                        <mxPoint x="540" y="220" as="targetPoint"/>
                    </mxGeometry>
                </mxCell>
                <mxCell id="36" value="" style="endArrow=none;html=1;rounded=0;" edge="1" parent="1">
                    <mxGeometry width="50" height="50" relative="1" as="geometry">
                        <mxPoint x="220" y="460" as="sourcePoint"/>
                        <mxPoint x="540" y="460" as="targetPoint"/>
                    </mxGeometry>
                </mxCell>
                <mxCell id="37" style="edgeStyle=orthogonalEdgeStyle;rounded=0;html=1;exitX=1;exitY=1;exitDx=0;exitDy=0;exitPerimeter=0;endArrow=none;endFill=0;" edge="1" parent="1" source="18">
                    <mxGeometry relative="1" as="geometry">
                        <mxPoint x="540.1379310344828" y="460" as="targetPoint"/>
                    </mxGeometry>
                </mxCell>
                <mxCell id="38" style="edgeStyle=orthogonalEdgeStyle;rounded=0;html=1;exitX=1;exitY=1;exitDx=0;exitDy=0;exitPerimeter=0;endArrow=none;endFill=0;" edge="1" parent="1" source="28">
                    <mxGeometry relative="1" as="geometry">
                        <mxPoint x="449.7931034482758" y="460" as="targetPoint"/>
                    </mxGeometry>
                </mxCell>
                <mxCell id="39" style="edgeStyle=orthogonalEdgeStyle;rounded=0;html=1;exitX=1;exitY=1;exitDx=0;exitDy=0;exitPerimeter=0;endArrow=none;endFill=0;" edge="1" parent="1" source="8">
                    <mxGeometry relative="1" as="geometry">
                        <mxPoint x="360.1379310344828" y="460" as="targetPoint"/>
                    </mxGeometry>
                </mxCell>
                <mxCell id="40" style="edgeStyle=orthogonalEdgeStyle;rounded=0;html=1;exitX=1;exitY=0;exitDx=0;exitDy=0;exitPerimeter=0;endArrow=none;endFill=0;" edge="1" parent="1" source="13">
                    <mxGeometry relative="1" as="geometry">
                        <mxPoint x="540.1379310344828" y="220" as="targetPoint"/>
                    </mxGeometry>
                </mxCell>
                <mxCell id="41" style="edgeStyle=orthogonalEdgeStyle;rounded=0;html=1;exitX=1;exitY=0;exitDx=0;exitDy=0;exitPerimeter=0;endArrow=none;endFill=0;" edge="1" parent="1" source="23">
                    <mxGeometry relative="1" as="geometry">
                        <mxPoint x="449.7931034482758" y="220" as="targetPoint"/>
                    </mxGeometry>
                </mxCell>
                <mxCell id="42" style="edgeStyle=orthogonalEdgeStyle;rounded=0;html=1;exitX=1;exitY=0;exitDx=0;exitDy=0;exitPerimeter=0;endArrow=none;endFill=0;" edge="1" parent="1" source="3">
                    <mxGeometry relative="1" as="geometry">
                        <mxPoint x="360.1379310344828" y="220" as="targetPoint"/>
                    </mxGeometry>
                </mxCell>
                <mxCell id="43" value="" style="endArrow=none;html=1;rounded=0;startArrow=oval;startFill=1;" edge="1" parent="1">
                    <mxGeometry width="50" height="50" relative="1" as="geometry">
                        <mxPoint x="360" y="320" as="sourcePoint"/>
                        <mxPoint x="650" y="320" as="targetPoint"/>
                    </mxGeometry>
                </mxCell>
                <mxCell id="44" value="" style="endArrow=none;html=1;rounded=0;startArrow=oval;startFill=1;" edge="1" parent="1">
                    <mxGeometry width="50" height="50" relative="1" as="geometry">
                        <mxPoint x="450" y="340" as="sourcePoint"/>
                        <mxPoint x="650" y="340" as="targetPoint"/>
                    </mxGeometry>
                </mxCell>
                <mxCell id="45" value="" style="endArrow=none;html=1;rounded=0;startArrow=oval;startFill=1;" edge="1" parent="1">
                    <mxGeometry width="50" height="50" relative="1" as="geometry">
                        <mxPoint x="540" y="359" as="sourcePoint"/>
                        <mxPoint x="650" y="359.30999999999995" as="targetPoint"/>
                    </mxGeometry>
                </mxCell>
                <mxCell id="46" value="M" style="verticalLabelPosition=middle;shadow=0;dashed=0;align=center;html=1;verticalAlign=middle;strokeWidth=1;shape=ellipse;fontSize=32;perimeter=ellipsePerimeter;" vertex="1" parent="1">
                    <mxGeometry x="630" y="290" width="100" height="100" as="geometry"/>
                </mxCell>
                <mxCell id="47" value="U, i&lt;sub&gt;A&lt;/sub&gt;" style="text;html=1;strokeColor=none;fillColor=none;align=center;verticalAlign=middle;whiteSpace=wrap;rounded=0;" vertex="1" parent="1">
                    <mxGeometry x="580" y="300" width="50" height="20" as="geometry"/>
                </mxCell>
                <mxCell id="48" value="V, i&lt;sub&gt;B&lt;/sub&gt;" style="text;html=1;strokeColor=none;fillColor=none;align=center;verticalAlign=middle;whiteSpace=wrap;rounded=0;" vertex="1" parent="1">
                    <mxGeometry x="580" y="321" width="50" height="20" as="geometry"/>
                </mxCell>
                <mxCell id="49" value="W, i&lt;sub&gt;C&lt;/sub&gt;" style="text;html=1;strokeColor=none;fillColor=none;align=center;verticalAlign=middle;whiteSpace=wrap;rounded=0;" vertex="1" parent="1">
                    <mxGeometry x="580" y="342" width="50" height="20" as="geometry"/>
                </mxCell>
            </root>
        </mxGraphModel>
    </diagram>
    <diagram id="tfxwnirkghS6HDdkio14" name="Overview">
        <mxGraphModel dx="1374" dy="790" grid="1" gridSize="10" guides="1" tooltips="1" connect="1" arrows="1" fold="1" page="1" pageScale="1" pageWidth="850" pageHeight="1100" math="0" shadow="0">
            <root>
                <mxCell id="B-IViplAS9wmjALhyfJd-0"/>
                <mxCell id="B-IViplAS9wmjALhyfJd-1" parent="B-IViplAS9wmjALhyfJd-0"/>
                <mxCell id="ejMBxo-EQtrqSvBw6PCG-11" style="edgeStyle=none;html=1;exitX=1;exitY=0.25;exitDx=0;exitDy=0;fontSize=12;startArrow=none;startFill=0;endArrow=blockThin;endFill=1;strokeWidth=2;" edge="1" parent="B-IViplAS9wmjALhyfJd-1" source="B-IViplAS9wmjALhyfJd-5">
                    <mxGeometry relative="1" as="geometry">
                        <mxPoint x="650" y="100" as="targetPoint"/>
                    </mxGeometry>
                </mxCell>
                <mxCell id="ejMBxo-EQtrqSvBw6PCG-12" style="edgeStyle=none;html=1;exitX=1;exitY=0.5;exitDx=0;exitDy=0;entryX=0.4;entryY=0.5;entryDx=0;entryDy=0;entryPerimeter=0;fontSize=12;startArrow=none;startFill=0;endArrow=blockThin;endFill=1;strokeWidth=2;" edge="1" parent="B-IViplAS9wmjALhyfJd-1" source="B-IViplAS9wmjALhyfJd-5" target="B-IViplAS9wmjALhyfJd-3">
                    <mxGeometry relative="1" as="geometry"/>
                </mxCell>
                <mxCell id="ejMBxo-EQtrqSvBw6PCG-13" style="edgeStyle=none;html=1;exitX=1;exitY=0.75;exitDx=0;exitDy=0;entryX=0.4;entryY=0.7;entryDx=0;entryDy=0;entryPerimeter=0;fontSize=12;startArrow=none;startFill=0;endArrow=blockThin;endFill=1;strokeWidth=2;" edge="1" parent="B-IViplAS9wmjALhyfJd-1" source="B-IViplAS9wmjALhyfJd-5" target="B-IViplAS9wmjALhyfJd-3">
                    <mxGeometry relative="1" as="geometry"/>
                </mxCell>
                <mxCell id="c2sT3-lW5XI8wE1A4uoz-4" value="" style="rounded=0;whiteSpace=wrap;html=1;fillColor=none;dashed=1;strokeColor=#FF66B3;" vertex="1" parent="B-IViplAS9wmjALhyfJd-1">
                    <mxGeometry x="570" y="30" width="180" height="250" as="geometry"/>
                </mxCell>
                <mxCell id="pqB6eh-7wnOLOfCNdrI0-2" value="" style="rounded=0;whiteSpace=wrap;html=1;fillColor=none;dashed=1;strokeColor=#FF66B3;" vertex="1" parent="B-IViplAS9wmjALhyfJd-1">
                    <mxGeometry x="160" y="370" width="390" height="150" as="geometry"/>
                </mxCell>
                <mxCell id="pqB6eh-7wnOLOfCNdrI0-0" value="" style="rounded=0;whiteSpace=wrap;html=1;fillColor=none;dashed=1;fontColor=#ffffff;strokeColor=#FF66B3;" vertex="1" parent="B-IViplAS9wmjALhyfJd-1">
                    <mxGeometry x="320" y="30" width="230" height="320" as="geometry"/>
                </mxCell>
                <mxCell id="B-IViplAS9wmjALhyfJd-2" style="edgeStyle=none;html=1;exitX=0.5;exitY=1;exitDx=0;exitDy=0;endArrow=blockThin;endFill=1;" edge="1" parent="B-IViplAS9wmjALhyfJd-1" source="B-IViplAS9wmjALhyfJd-3" target="B-IViplAS9wmjALhyfJd-15">
                    <mxGeometry relative="1" as="geometry"/>
                </mxCell>
                <mxCell id="B-IViplAS9wmjALhyfJd-3" value="&lt;font style=&quot;font-size: 24px&quot;&gt;SG&lt;/font&gt;" style="verticalLabelPosition=middle;shadow=0;dashed=0;align=center;html=1;verticalAlign=middle;strokeWidth=3;shape=ellipse;fontSize=32;perimeter=ellipsePerimeter;fillColor=#1ba1e2;strokeColor=#006EAF;fontColor=#ffffff;" vertex="1" parent="B-IViplAS9wmjALhyfJd-1">
                    <mxGeometry x="610" y="70" width="100" height="100" as="geometry"/>
                </mxCell>
                <mxCell id="B-IViplAS9wmjALhyfJd-5" value="3-Phase Inverter&lt;br&gt;(IGBTs)" style="rounded=0;whiteSpace=wrap;html=1;strokeWidth=3;fillColor=#1ba1e2;fontColor=#ffffff;strokeColor=#006EAF;" vertex="1" parent="B-IViplAS9wmjALhyfJd-1">
                    <mxGeometry x="360" y="80" width="120" height="80" as="geometry"/>
                </mxCell>
                <mxCell id="B-IViplAS9wmjALhyfJd-6" style="edgeStyle=none;html=1;entryX=0;entryY=0.5;entryDx=0;entryDy=0;endArrow=none;endFill=0;strokeWidth=3;startArrow=none;startFill=0;" edge="1" parent="B-IViplAS9wmjALhyfJd-1" target="B-IViplAS9wmjALhyfJd-5">
                    <mxGeometry relative="1" as="geometry">
                        <mxPoint x="260" y="120" as="sourcePoint"/>
                    </mxGeometry>
                </mxCell>
                <mxCell id="B-IViplAS9wmjALhyfJd-7" value="270V Battery" style="pointerEvents=1;verticalLabelPosition=bottom;shadow=0;dashed=0;align=center;html=1;verticalAlign=top;shape=mxgraph.electrical.miscellaneous.batteryStack;rotation=0;strokeWidth=3;" vertex="1" parent="B-IViplAS9wmjALhyfJd-1">
                    <mxGeometry x="30" y="80" width="120" height="80" as="geometry"/>
                </mxCell>
                <mxCell id="B-IViplAS9wmjALhyfJd-8" style="edgeStyle=none;html=1;exitX=0.5;exitY=0;exitDx=0;exitDy=0;entryX=0.5;entryY=1;entryDx=0;entryDy=0;endArrow=blockThin;endFill=1;" edge="1" parent="B-IViplAS9wmjALhyfJd-1" source="B-IViplAS9wmjALhyfJd-9" target="B-IViplAS9wmjALhyfJd-5">
                    <mxGeometry relative="1" as="geometry"/>
                </mxCell>
                <mxCell id="B-IViplAS9wmjALhyfJd-9" value="Gate Drivers" style="rounded=0;whiteSpace=wrap;html=1;fillColor=#1ba1e2;fontColor=#ffffff;strokeColor=#006EAF;" vertex="1" parent="B-IViplAS9wmjALhyfJd-1">
                    <mxGeometry x="360" y="240" width="120" height="80" as="geometry"/>
                </mxCell>
                <mxCell id="B-IViplAS9wmjALhyfJd-10" style="edgeStyle=none;html=1;exitX=0.5;exitY=0;exitDx=0;exitDy=0;entryX=0.5;entryY=1;entryDx=0;entryDy=0;endArrow=blockThin;endFill=1;" edge="1" parent="B-IViplAS9wmjALhyfJd-1" source="B-IViplAS9wmjALhyfJd-11" target="B-IViplAS9wmjALhyfJd-9">
                    <mxGeometry relative="1" as="geometry"/>
                </mxCell>
                <mxCell id="B-IViplAS9wmjALhyfJd-11" value="32-bit MCU" style="rounded=0;whiteSpace=wrap;html=1;fillColor=#1ba1e2;fontColor=#ffffff;strokeColor=#006EAF;" vertex="1" parent="B-IViplAS9wmjALhyfJd-1">
                    <mxGeometry x="360" y="405" width="120" height="80" as="geometry"/>
                </mxCell>
                <mxCell id="ejMBxo-EQtrqSvBw6PCG-3" style="edgeStyle=none;html=1;exitX=1;exitY=0.5;exitDx=0;exitDy=0;entryX=0;entryY=0.5;entryDx=0;entryDy=0;fontSize=12;endArrow=none;endFill=0;" edge="1" parent="B-IViplAS9wmjALhyfJd-1" source="B-IViplAS9wmjALhyfJd-13" target="ejMBxo-EQtrqSvBw6PCG-2">
                    <mxGeometry relative="1" as="geometry"/>
                </mxCell>
                <mxCell id="B-IViplAS9wmjALhyfJd-13" value="28V Battery" style="pointerEvents=1;verticalLabelPosition=bottom;shadow=0;dashed=0;align=center;html=1;verticalAlign=top;shape=mxgraph.electrical.miscellaneous.batteryStack;rotation=0;" vertex="1" parent="B-IViplAS9wmjALhyfJd-1">
                    <mxGeometry x="40" y="415" width="90" height="60" as="geometry"/>
                </mxCell>
                <mxCell id="B-IViplAS9wmjALhyfJd-14" style="edgeStyle=orthogonalEdgeStyle;html=1;exitX=0.5;exitY=1;exitDx=0;exitDy=0;entryX=1;entryY=0.75;entryDx=0;entryDy=0;endArrow=blockThin;endFill=1;" edge="1" parent="B-IViplAS9wmjALhyfJd-1" source="B-IViplAS9wmjALhyfJd-15" target="B-IViplAS9wmjALhyfJd-11">
                    <mxGeometry relative="1" as="geometry"/>
                </mxCell>
                <mxCell id="B-IViplAS9wmjALhyfJd-15" value="Encoder" style="rounded=0;whiteSpace=wrap;html=1;fillColor=#1ba1e2;fontColor=#ffffff;strokeColor=#006EAF;" vertex="1" parent="B-IViplAS9wmjALhyfJd-1">
                    <mxGeometry x="610" y="200" width="100" height="50" as="geometry"/>
                </mxCell>
                <mxCell id="pqB6eh-7wnOLOfCNdrI0-1" value="Driver Stage" style="text;html=1;strokeColor=none;fillColor=none;align=center;verticalAlign=middle;whiteSpace=wrap;rounded=0;dashed=1;fontStyle=1" vertex="1" parent="B-IViplAS9wmjALhyfJd-1">
                    <mxGeometry x="320" y="30" width="100" height="30" as="geometry"/>
                </mxCell>
                <mxCell id="pqB6eh-7wnOLOfCNdrI0-3" value="Control Unit" style="text;html=1;strokeColor=none;fillColor=none;align=center;verticalAlign=middle;whiteSpace=wrap;rounded=0;dashed=1;fontStyle=1" vertex="1" parent="B-IViplAS9wmjALhyfJd-1">
                    <mxGeometry x="160" y="370" width="90" height="30" as="geometry"/>
                </mxCell>
                <mxCell id="pqB6eh-7wnOLOfCNdrI0-6" style="edgeStyle=none;html=1;exitX=0.5;exitY=0;exitDx=0;exitDy=0;entryX=0.5;entryY=1;entryDx=0;entryDy=0;fontSize=24;endArrow=blockThin;endFill=1;startArrow=blockThin;startFill=1;" edge="1" parent="B-IViplAS9wmjALhyfJd-1" source="pqB6eh-7wnOLOfCNdrI0-5" target="B-IViplAS9wmjALhyfJd-11">
                    <mxGeometry relative="1" as="geometry"/>
                </mxCell>
                <mxCell id="pqB6eh-7wnOLOfCNdrI0-5" value="FADEC" style="rounded=0;whiteSpace=wrap;html=1;" vertex="1" parent="B-IViplAS9wmjALhyfJd-1">
                    <mxGeometry x="360" y="600" width="120" height="80" as="geometry"/>
                </mxCell>
                <mxCell id="c2sT3-lW5XI8wE1A4uoz-0" value="" style="rounded=0;whiteSpace=wrap;html=1;fontSize=24;strokeColor=#FFFFFF;fillColor=none;" vertex="1" parent="B-IViplAS9wmjALhyfJd-1">
                    <mxGeometry x="250" y="70" width="10" height="110" as="geometry"/>
                </mxCell>
                <mxCell id="c2sT3-lW5XI8wE1A4uoz-1" style="edgeStyle=none;html=1;entryX=0;entryY=0.5;entryDx=0;entryDy=0;endArrow=none;endFill=0;strokeWidth=3;startArrow=none;startFill=0;" edge="1" parent="B-IViplAS9wmjALhyfJd-1">
                    <mxGeometry relative="1" as="geometry">
                        <mxPoint x="150" y="119.5" as="sourcePoint"/>
                        <mxPoint x="250" y="119.5" as="targetPoint"/>
                    </mxGeometry>
                </mxCell>
                <mxCell id="c2sT3-lW5XI8wE1A4uoz-3" value="270V Bus" style="text;html=1;strokeColor=none;fillColor=none;align=center;verticalAlign=middle;whiteSpace=wrap;rounded=0;dashed=1;fontStyle=0" vertex="1" parent="B-IViplAS9wmjALhyfJd-1">
                    <mxGeometry x="205" y="40" width="100" height="30" as="geometry"/>
                </mxCell>
                <mxCell id="c2sT3-lW5XI8wE1A4uoz-6" value="S/G Unit" style="text;html=1;strokeColor=none;fillColor=none;align=center;verticalAlign=middle;whiteSpace=wrap;rounded=0;dashed=1;fontStyle=1" vertex="1" parent="B-IViplAS9wmjALhyfJd-1">
                    <mxGeometry x="570" y="30" width="70" height="30" as="geometry"/>
                </mxCell>
                <mxCell id="ejMBxo-EQtrqSvBw6PCG-4" style="edgeStyle=none;html=1;exitX=1;exitY=0.5;exitDx=0;exitDy=0;entryX=0;entryY=0.5;entryDx=0;entryDy=0;fontSize=12;endArrow=none;endFill=0;" edge="1" parent="B-IViplAS9wmjALhyfJd-1" source="ejMBxo-EQtrqSvBw6PCG-2" target="B-IViplAS9wmjALhyfJd-11">
                    <mxGeometry relative="1" as="geometry"/>
                </mxCell>
                <mxCell id="ejMBxo-EQtrqSvBw6PCG-2" value="Power&lt;br&gt;management" style="rounded=0;whiteSpace=wrap;html=1;fillColor=#1ba1e2;fontColor=#ffffff;strokeColor=#006EAF;" vertex="1" parent="B-IViplAS9wmjALhyfJd-1">
                    <mxGeometry x="200" y="405" width="120" height="80" as="geometry"/>
                </mxCell>
                <mxCell id="ejMBxo-EQtrqSvBw6PCG-16" style="edgeStyle=orthogonalEdgeStyle;html=1;exitX=1;exitY=0.5;exitDx=0;exitDy=0;entryX=1;entryY=0.25;entryDx=0;entryDy=0;fontSize=12;startArrow=none;startFill=0;endArrow=blockThin;endFill=1;strokeWidth=1;" edge="1" parent="B-IViplAS9wmjALhyfJd-1" source="ejMBxo-EQtrqSvBw6PCG-9" target="B-IViplAS9wmjALhyfJd-11">
                    <mxGeometry relative="1" as="geometry">
                        <Array as="points">
                            <mxPoint x="520" y="425"/>
                        </Array>
                    </mxGeometry>
                </mxCell>
                <mxCell id="ejMBxo-EQtrqSvBw6PCG-9" value="" style="ellipse;whiteSpace=wrap;html=1;fontSize=12;rotation=90;fillColor=none;" vertex="1" parent="B-IViplAS9wmjALhyfJd-1">
                    <mxGeometry x="485" y="110" width="70" height="20" as="geometry"/>
                </mxCell>
                <mxCell id="ejMBxo-EQtrqSvBw6PCG-17" value="Current&lt;br&gt;sensor&lt;br&gt;signal" style="text;html=1;strokeColor=none;fillColor=none;align=center;verticalAlign=middle;whiteSpace=wrap;rounded=0;fontSize=12;" vertex="1" parent="B-IViplAS9wmjALhyfJd-1">
                    <mxGeometry x="490" y="40" width="60" height="30" as="geometry"/>
                </mxCell>
            </root>
        </mxGraphModel>
    </diagram>
</mxfile>